<svg xmlns="http://www.w3.org/2000/svg" viewBox="0 0 683.05 682.39"><defs><style>.cls-1{fill:#c1272d;}.cls-2{fill:#b3b3b3;}.cls-3{fill:#ccc;}.cls-4{fill:#4d4d4d;}.cls-5{fill:#a8c701;}.cls-6{fill:#fefefe;}.cls-7{fill:#020201;}</style></defs><g id="Layer_2" data-name="Layer 2"><path class="cls-1" d="M1012.1,544.13a344.08,344.08,0,0,0,4.88-57.72C1017,298,864.22,145.22,675.79,145.22S334.59,298,334.59,486.41a343,343,0,0,0,4.89,57.72Z" transform="translate(-334.59 -145.22)"/><path d="M342.27,558.58c33.11,153.77,169.84,269,333.52,269s300.4-115.26,333.52-269Z" transform="translate(-334.59 -145.22)"/></g><g id="Layer_1" data-name="Layer 1"><path class="cls-1" d="M660.5,423.55c1.29-2.55-1-3.7-2.25-4.92-10-9.93-20.13-19.8-30.4-29.49-2.9-2.73-3.39-4.18.17-6.95,11.12-8.64,23.08-15.61,36.44-20.12,10.27-2.61,20.54-2.21,30.81,0,14.65,4.18,27.3,12,39.32,21.13,2.9,2.2,2.61,3.4.13,5.67q-16.1,14.72-31.86,29.8c-1.72,1.65-3.9,3.23-4.15,6l.06-.21c-.69-.06-.93.3-.87.93L689,436.52c5.9-1.65,9.95-6.7,16.29-7.69-.76,2.25-2.47,3.33-3.62,4.82-5,6.47-10,12.9-10.21,21.61-.53,1.2-1.14,2.38-1.59,3.62-.66,1.75-.74,3.92-3.33,4.1s-4-1.62-5.22-3.49c-.71-1.09-1.25-2.3-1.93-3.57-.47,3.12-.82,6.72-4.48,6.79a7.49,7.49,0,0,1-7.8-6,11.09,11.09,0,0,0-.46-4.35c-1.87-8.87-7.44-15.55-13-22.23l.81-1.07c6.83,2.24,11.79,7.36,17.48,11.36l.15.73.41-.34-.64-.31c-1.91-5.86-6.39-10.07-9.63-15.08.13-.32.25-.65.38-1l-.7,0,.09.07c-.13-.46-.27-.92-.4-1.37l-.94.4Z" transform="translate(-334.59 -145.22)"/><path class="cls-2" d="M691.43,455.26c.21-8.71,5.23-15.14,10.21-21.61,1.15-1.49,2.86-2.57,3.62-4.82-6.34,1-10.39,6-16.29,7.69l8.93-11.12c.45-.16,1.2,0,.87-.93l-.06.21c2.95-.89,4.79-3.32,7-5.16,13.89-11.36,28.73-20.79,46.57-24.91,11.78-2.72,22.91-1.15,33.89,3.36,3.92,1.61,5.68,5.1,7.65,8.34,3.13,5.12,5.24,10.63,4.93,16.8,0,.74.21,1.81-.18,2.17-4.62,4.15-1.41,8.72-.69,13.05,1.5,9.05,1.61,9-6.56,13.18-1.12-1.75-.49-3.74-.73-5.61-.76-6-1.37-12-5.35-17-.33-1.15.3-1.84,1-2.7a14.12,14.12,0,0,0-.57-18.05c-5.78-6.51-18.72-9.29-26.43-5.57C735.59,414,717.54,431.71,703,453.28c-.57.85-1.33,1.65-.83,2.82a16.61,16.61,0,0,0,3.63,12.41c1.75,2.1.71,3.86-.3,5.16-1.51,1.92-2.85-.26-4-1.06-9-6.54-9.78-11.11-3.72-20.32,1.13-1.72,2.24-3.45,3.35-5.18.11-.36.39-.95.28-1-.52-.41-1-.18-1.33.37C696.27,448.44,694.1,452.1,691.43,455.26Zm14.94-26.78c-.08-.09-.16-.24-.24-.25s-.19.13-.28.2c.08.09.17.23.26.24S706.29,428.53,706.37,428.48Z" transform="translate(-334.59 -145.22)"/><path class="cls-2" d="M660.5,423.55l.09,0c.21.66.56,1.11,1.34,1l-.09-.07c-.45.51.12.67.32.95,3.24,5,7.72,9.22,9.63,15.08l.08-.08c-5.69-4-10.65-9.12-17.48-11.35-.51-.24-1.09-.55-1.44.11-.08.17.41.63.63.95,5.6,6.68,11.17,13.36,13,22.23a11.09,11.09,0,0,1,.46,4.35c-2.87-4-5.61-8.11-10-10.66L656,446c.15.32.29.65.44,1,1.8,2.87,3.55,5.77,5.43,8.59,2.95,4.45,2.55,8.52-1,12.48a23.79,23.79,0,0,1-5.51,5.1c-.91.53-2.09,2.44-3.19.61-.78-1.29-2.31-2.81-.52-4.71a16.1,16.1,0,0,0,4.27-12.64c-.61-5.28-4.42-8.84-7.2-12.88C638,428,625.42,414.3,608.4,405.31c-8.94-4.73-18.13-6.35-27.89-3.15-3.51,1.16-7,2.44-8.84,6.13-5.07,7.52-4.54,14.33,1.54,19.61-4.56,6.09-5.46,13.26-6.05,20.51-7.21-3.63-7.22-3.63-5.26-11.5.32-1.29.42-2.8,1.17-3.78,2-2.6,1.42-4.46-1.12-6.09-1.44-.92-1.56-2.34-1.63-3.89-.52-12,8-24,19.39-27.52,19.53-6,37.08-.33,54.1,8.8C643.54,409.64,651.81,416.89,660.5,423.55Z" transform="translate(-334.59 -145.22)"/><path class="cls-3" d="M695.27,362.07c-10.27-2.21-20.54-2.61-30.81,0-6.08-.21-11.67,1.93-17.25,3.86A91.71,91.71,0,0,0,615.8,384c-3.54,3.15-6.7,4.3-11,2.76-1.22-.43-2.53-.63-3.88-1,44.89-45.55,118.78-40.95,157.38.19-5.11,2.06-9.12,2-13.86-2.14a94.51,94.51,0,0,0-43.86-21.52A13.5,13.5,0,0,0,695.27,362.07Z" transform="translate(-334.59 -145.22)"/><path class="cls-1" d="M571.67,408.29c1.8-3.69,5.33-5,8.84-6.13,9.76-3.2,19-1.58,27.89,3.15,17,9,29.6,22.64,40.31,38.2,2.78,4,6.59,7.6,7.2,12.88-.5.55-1,1.08-1.5,1.65-2.23,2.69-3.76,2.86-5.88-.53-10.85-17.25-25.64-29.85-44.93-36.89-7-2.56-14.29-4.38-21.72-4.34C575.87,416.32,572.82,413.83,571.67,408.29Z" transform="translate(-334.59 -145.22)"/><path class="cls-1" d="M702.17,456.1c-.5-1.17.26-2,.83-2.82,14.54-21.57,32.59-39.26,56.28-50.68,7.71-3.72,20.65-.94,26.43,5.57-.73,7.6-1.25,7.85-9.21,8.49-28.42,2.3-49.83,16.39-65.69,39.55C706.62,462.33,706.28,462.4,702.17,456.1Z" transform="translate(-334.59 -145.22)"/><path class="cls-4" d="M589.85,433.7c19.31,8.46,37.21,16.91,50.12,33,.89,1.12,2.71,2.25,2,3.69S639.2,472,637.56,472c-13.47-.13-25.93-2.72-34.83-14.17A80.18,80.18,0,0,1,589.85,433.7Z" transform="translate(-334.59 -145.22)"/><path class="cls-4" d="M767.91,433.52c-4.66,12.75-10,24-20.12,31.17A41.14,41.14,0,0,1,719,471.81c-4-.46-4.3-1.43-1.73-4.73,9-11.53,21-19.13,33.79-25.7C756.16,438.73,761.5,436.49,767.91,433.52Z" transform="translate(-334.59 -145.22)"/><path class="cls-2" d="M790.49,459.39c1.31-.67,2.63-1.32,3.94-2,6.27-3.26,12.65-4.73,19.52-1.65a28,28,0,0,0,7.23,2.07c10.75,1.55,15.76,8.92,19,18.24,3.74,10.87,3.76,10.87-7.57,10.85-1.78,0-3.55-.09-5.33-.14a70.49,70.49,0,0,0-2.91-16.17c-.43-1.36-.68-3.17-2.35-3.56C811.48,464.53,802.08,457.4,790.49,459.39Z" transform="translate(-334.59 -145.22)"/><path class="cls-2" d="M530.72,486.76c-10.86.57-10.91.55-8-9.67a63.15,63.15,0,0,1,3.28-8.72c2.05-4.5,5.06-7.6,10.36-8.78a109.9,109.9,0,0,0,18.16-6,10,10,0,0,1,9.61.67c4.15,2.38,8.88,3.86,12.09,7.72a9.2,9.2,0,0,1-2.61-.33c-8.39-3.68-16.15-1.28-24.72.54C534.46,465.3,530.74,474.13,530.72,486.76Z" transform="translate(-334.59 -145.22)"/><path class="cls-1" d="M530.72,486.76c0-12.63,3.74-21.46,18.19-24.53,8.57-1.82,16.33-4.22,24.72-.54a9.2,9.2,0,0,0,2.61.33l5.82,3.24c-7,.58-13-.19-18.84,1.19-6.57,1.56-12.47,4.59-18.34,7.73-3.22,1.73-2.62,5.27-2.76,8-.2,4.11-1.85,5.31-5.63,4.78A52.81,52.81,0,0,0,530.72,486.76Z" transform="translate(-334.59 -145.22)"/><path class="cls-1" d="M790.49,459.39c11.59-2,21,5.14,31.5,7.64,1.67.39,1.92,2.2,2.35,3.56a70.49,70.49,0,0,1,2.91,16.17c-.44.05-.88.12-1.33.13-7.62.16-7.76.18-9-7.28-.56-3.43-2.2-5.36-5.28-7-9.19-4.83-18.72-8-30.29-7C784.56,462.39,787.6,461,790.49,459.39Z" transform="translate(-334.59 -145.22)"/><path class="cls-1" d="M898.42,478.29c-3.24,2.08-6.5,4.13-8.7,7.41-.93,1.37-1.9,1.53-3.35.7-4.35-2.51-8.19-5.5-9.27-10.7-.51-2.47-1.11-2.55-3.11-1.27-3.88,2.45-7.91,4.67-10.72,8.43-1.2,1.6-2.75,1.48-4.39,1.21,5.37-8.88,12.55-15.57,22.53-19,4.18-1.45,7.45-.54,10.2,2.91A76,76,0,0,1,898.42,478.29Z" transform="translate(-334.59 -145.22)"/><path class="cls-1" d="M503,484.09c-1.62.19-3.29.53-4.42-1.15-3.11-4.62-8.21-6.6-13-10a18.32,18.32,0,0,1-8.89,12.73c-2.19,1.29-3.78,1.85-5.43-.87-1.81-3-5-4.57-7.87-6.36a62,62,0,0,1,6.46-10.09c2.92-3.81,6.32-4.8,10.91-3.17C490.65,468.68,497.59,475.45,503,484.09Z" transform="translate(-334.59 -145.22)"/><path class="cls-3" d="M896.44,497.48c-.55,2.14-1.09,4.29-1.64,6.43-.14.55-.18,1.31-.93,1.31s-1.17-.58-1.43-1.34c-2.56-7.45,5.36-19.7,13.16-20.42,1.34-.13,1.83.6,2.48,1.41a113.52,113.52,0,0,0,22,20.64c-6,2.91-11.9,4.83-19,4.47,3.46-1.91,7.09-2.25,9.15-5.24l-.16,0,1.54-.66c-4.71-3.39-9.82-6.22-13.53-10.9s-5.86-4.5-9.56.39A25.93,25.93,0,0,0,896.44,497.48Z" transform="translate(-334.59 -145.22)"/><path class="cls-3" d="M440.05,503.91c2.64,3.06,6.5,4,10,5.69-5.11.87-11.93-.71-18-4.28a118.18,118.18,0,0,0,22.13-21,2.07,2.07,0,0,1,1.91-.84c8.41.42,16.36,14,12.55,21.47-.11.22-.49.31-1,.6l-2.31-7.82a12.16,12.16,0,0,0-5.83-7.46c-1.59-.92-2.9-1.19-4.12.69C451.65,496.79,446,500.51,440.05,503.91Z" transform="translate(-334.59 -145.22)"/><path class="cls-3" d="M898.42,478.29a76,76,0,0,0-6.81-10.35c-2.75-3.45-6-4.36-10.2-2.91-10,3.47-17.16,10.16-22.53,19a20.66,20.66,0,0,1-2.22.13,7.25,7.25,0,0,1-1.64-.55c6.15-10.1,13.22-18.85,24.82-22.64,7.22-2.35,11.47-1,15.95,5,2.43,3.3,4.29,7,6.55,10.77Z" transform="translate(-334.59 -145.22)"/><path class="cls-3" d="M503,484.09c-5.42-8.64-12.36-15.41-22.21-18.92-4.59-1.63-8-.64-10.91,3.17a62,62,0,0,0-6.46,10.09l-3.8-1.61c2.33-3.95,4.1-8,6.89-11.49,3.85-4.8,8.55-6.44,14.6-4.58,12.09,3.71,19.32,12.6,25.59,22.78C505.32,484.55,504.15,484.19,503,484.09Z" transform="translate(-334.59 -145.22)"/><path class="cls-3" d="M931.47,494.9c-3.16-1.22-3.27-3-.91-5.17a35.33,35.33,0,0,1,5.4-4.57c2.45-1.45,5.21-3.46,8.15-1.42a9.42,9.42,0,0,1,3.52,11.4c-3.36,7.39-7.2,14.57-8.94,22.59-.36,1.66-1.43,1.67-2.69,1.32a9,9,0,0,1-5.38-3.34c5.92-1.05,7.72-5.41,8.61-10.48,1.66-4.09,3.44-8.14,4.91-12.29a4.61,4.61,0,0,0-1.2-5.3c-1.73-1.5-3.06,0-4.36.74A20.29,20.29,0,0,0,931.47,494.9Z" transform="translate(-334.59 -145.22)"/><path class="cls-3" d="M422.59,505c.78,5.12,2.51,9.51,8.43,10.61-.72,1.92-2.4,2.22-3.75,2.92-2.52,1.28-3.84.83-4.54-2.26-1.57-6.95-4.83-13.3-7.87-19.71-2.37-5-1.46-9.14,2.63-12.78a3.38,3.38,0,0,1,3.27-.69c5.12,1,8.8,4.14,11.73,8.18,1.88,2.6-1.11,2.61-2.23,3.59a17,17,0,0,0-6.67-6.28c-1.4-.8-2.87-2.56-4.74-1s-2,3.61-1.17,5.66C419.23,497.23,420.94,501.12,422.59,505Z" transform="translate(-334.59 -145.22)"/><path class="cls-1" d="M896.44,497.48a25.93,25.93,0,0,1,2-3.87c3.7-4.89,5.88-5,9.56-.39s8.82,7.51,13.53,10.9l-1.54.66.16,0C911.29,505.55,903.24,503.56,896.44,497.48Z" transform="translate(-334.59 -145.22)"/><path class="cls-1" d="M454.77,466.32c-.31,1.48-.73,2.89-2.55,3.13-6.48.87-10.9,5.08-14.63,9.82-2.38,3-4,3.75-6.63.64a10.43,10.43,0,0,0-1.71-1.36c3.49-6.06,8.76-10.17,14.78-13.49C448,462.9,451.55,462.83,454.77,466.32Z" transform="translate(-334.59 -145.22)"/><path class="cls-1" d="M440.05,503.91c5.92-3.4,11.6-7.12,15.41-13,1.22-1.88,2.53-1.61,4.12-.69a12.16,12.16,0,0,1,5.83,7.46C457.86,503.44,449.63,506.42,440.05,503.91Z" transform="translate(-334.59 -145.22)"/><path class="cls-1" d="M932.72,478.45a2.36,2.36,0,0,1-.29.33c-5.08,3.83-5,3.73-9.28-.95-3.64-3.94-7.64-7.59-13.28-8.33-2-.26-2.24-1.64-2.81-2.95,2.91-3.66,6.38-3.67,10.26-1.72A40.21,40.21,0,0,1,932.72,478.45Z" transform="translate(-334.59 -145.22)"/><path class="cls-3" d="M932.72,478.45a40.21,40.21,0,0,0-15.4-13.62c-3.88-1.95-7.35-1.94-10.26,1.72-2.82-3.55.2-5.08,2.51-6.36,3.29-1.84,6.66-.58,9.77.85a46.19,46.19,0,0,1,16.77,13.48C938.94,478.07,933.66,476.89,932.72,478.45Z" transform="translate(-334.59 -145.22)"/><path class="cls-3" d="M454.77,466.32c-3.22-3.49-6.82-3.42-10.74-1.26-6,3.32-11.29,7.43-14.78,13.49l-5.13-2.45c5.87-6.52,11.78-12.42,19.76-15.66,5.12-2.07,8.74-1.13,11.23,2.1C456.31,464.11,456,465.16,454.77,466.32Z" transform="translate(-334.59 -145.22)"/><path class="cls-1" d="M785.28,428.92c4,5,4.59,11,5.35,17,.24,1.87-.39,3.86.73,5.61l-13.25,10.24C782.83,450.44,785.54,440,785.28,428.92Z" transform="translate(-334.59 -145.22)"/><path class="cls-1" d="M567.16,448.41c.59-7.25,1.49-14.42,6.05-20.51,1.57,3.88.68,8,1.3,12,.87,5.55,2.81,10.77,4,16.21-.21.19-.4.38-.6.58Z" transform="translate(-334.59 -145.22)"/><path class="cls-3" d="M946.48,471.93c-.91-1-2.8-1.5-1.45-3.47,1.86-2.7,2.53-6.55,6.92-6.66a16,16,0,0,1,8.85,2.56,89.84,89.84,0,0,1,7.76,5.14c2.56,1.93,3.34,4.43,2.81,7.82s-1.73,2.09-3.27,1.12c.5-6.22-4-10.8-12.68-13C951.32,464.43,949.45,465.79,946.48,471.93Z" transform="translate(-334.59 -145.22)"/><path class="cls-3" d="M393.9,478.25c-2.24,1.94-3.45,1.85-3.5-1.53,0-1.81-.36-3.69.94-5.08,5-5.34,10.76-9.29,18.27-9.81,4.39-.31,5.18,3.67,7,6.4,1.24,1.83.17,2.64-1.12,3.52-4.68-7.83-6-8.2-14.36-4-1.57.79-3.08,1.71-4.58,2.64C393.57,472.28,392.39,474.82,393.9,478.25Z" transform="translate(-334.59 -145.22)"/><path class="cls-1" d="M422.59,505c-1.65-3.92-3.36-7.81-4.91-11.76-.81-2-.65-4.14,1.17-5.66s3.34.2,4.74,1a17,17,0,0,1,6.67,6.28C427.15,497.86,423,500.07,422.59,505Z" transform="translate(-334.59 -145.22)"/><path class="cls-1" d="M931.47,494.9a20.29,20.29,0,0,1,7.11-6.52c1.3-.7,2.63-2.24,4.36-.74a4.61,4.61,0,0,1,1.2,5.3c-1.47,4.15-3.25,8.2-4.91,12.29C938.9,500.09,934.66,497.89,931.47,494.9Z" transform="translate(-334.59 -145.22)"/><path class="cls-3" d="M400.72,502.9a8.84,8.84,0,0,1-4.49,1.72c-5.41.89-6.14,0-5.2-5.23a50.63,50.63,0,0,0,.51-7.5c.11-4.93,8.85-9.94,13.33-7.63.65.34.88.75.62,1.33-.39.88-.33,2.17-1.72,2.27s-2.65.1-4,.15c-1.8,0-4.42.18-4.87,1.46-1.22,3.5-.25,7.37-.52,11.1C394.16,503.83,398.43,502.32,400.72,502.9Z" transform="translate(-334.59 -145.22)"/><path class="cls-3" d="M961.89,488c-2.31-.42-5.79,1.15-5.6-3.47a13.86,13.86,0,0,1,8.12.5c3.72,1.28,6.47,2.9,5.85,7.77a21.23,21.23,0,0,0,1.11,8.69c.8,2.58,0,3.19-2.25,3.26-2.84.1-5.6,0-8-1.85,6.33-.29,6.32-.29,5.94-6.2a7.83,7.83,0,0,1,0-2.65C968.56,489.22,965.89,488.05,961.89,488Z" transform="translate(-334.59 -145.22)"/><path class="cls-1" d="M393.9,478.25c-1.51-3.43-.33-6,2.67-7.84,1.5-.93,3-1.85,4.58-2.64,8.4-4.22,9.68-3.85,14.36,4-1,2.19-2.05,2-2.74-.13-1.28-3.91-3.67-3.78-6.47-1.85s-7.07,2.34-8,6.88C398.11,477.45,395.42,477.73,393.9,478.25Z" transform="translate(-334.59 -145.22)"/><path class="cls-1" d="M946.48,471.93c3-6.14,4.84-7.5,8.94-6.48,8.7,2.19,13.18,6.77,12.68,13-2.4-.79-4.32-1.35-5.89-4.25-1.67-3.08-6-4.63-9.7-5.69-2-.56-2.68,1.37-3.38,2.86C948.51,472.7,947.86,474,946.48,471.93Z" transform="translate(-334.59 -145.22)"/><path class="cls-1" d="M961.89,488c4,.06,6.67,1.23,5.24,6.05a7.83,7.83,0,0,0,0,2.65c.38,5.91.39,5.91-5.94,6.2-.79-.07-1.54-.47-1.57-1.21,0-1.08,1-.85,1.66-.83,2.51.12,2.65-.9,1.69-2.9C961.42,494.78,961.52,491.38,961.89,488Z" transform="translate(-334.59 -145.22)"/><path class="cls-1" d="M400.72,502.9c-2.29-.58-6.56.93-6.32-2.33.27-3.73-.7-7.6.52-11.1.45-1.28,3.07-1.42,4.87-1.46,1.41,3.23.48,6.34-.72,9.33-.92,2.29-1.45,3.93,2.05,3.52.59-.07,1.71-.16,1.35.94C402.3,502.3,401.33,502.54,400.72,502.9Z" transform="translate(-334.59 -145.22)"/><path class="cls-5" d="M578.49,456.14c.09.36.37.94.26,1-.46.38-.68-.06-.86-.45C578.09,456.52,578.28,456.33,578.49,456.14Z" transform="translate(-334.59 -145.22)"/><path class="cls-6" d="M671.79,440.52l.64.31-.41.34-.15-.73Z" transform="translate(-334.59 -145.22)"/><path class="cls-7" d="M698.77,424.47c.33.89-.42.77-.87.93C697.84,424.77,698.08,424.41,698.77,424.47Z" transform="translate(-334.59 -145.22)"/><path class="cls-7" d="M662.16,425.44c-.2-.28-.77-.44-.32-.95l.7,0C662.41,424.79,662.29,425.12,662.16,425.44Z" transform="translate(-334.59 -145.22)"/><path class="cls-7" d="M661.93,424.56c-.78.14-1.13-.31-1.34-1l.94-.4C661.66,423.64,661.8,424.1,661.93,424.56Z" transform="translate(-334.59 -145.22)"/><path class="cls-7" d="M700.12,446.45c.33-.55.81-.78,1.33-.37.11.08-.17.67-.28,1Z" transform="translate(-334.59 -145.22)"/><path class="cls-5" d="M706.37,428.48c-.08,0-.17.19-.26.19s-.18-.15-.26-.24c.09-.07.19-.21.28-.2S706.29,428.39,706.37,428.48Z" transform="translate(-334.59 -145.22)"/><path class="cls-5" d="M653.58,430.15c-.22-.32-.71-.78-.63-.95.35-.66.93-.35,1.44-.11Z" transform="translate(-334.59 -145.22)"/><path class="cls-7" d="M656.42,447c-.15-.32-.29-.65-.44-1l1.09.08C656.85,446.37,656.63,446.66,656.42,447Z" transform="translate(-334.59 -145.22)"/><path class="cls-7" d="M920,504.78l1.54-.67Z" transform="translate(-334.59 -145.22)"/><path d="M378.42,490.93c-14.36-.13-28.72-.06-43.07-.09A339.82,339.82,0,0,0,362,619.54H991a340.06,340.06,0,0,0,26.63-128.68c-10.29,0-20.58,0-30.88,0-7.62,0-7.63,0-7-7.41.17-1.92.3-3.86.62-5.76,1-6.18-1.23-11.14-5.86-15a56.12,56.12,0,0,0-8.46-5.77c-13.31-7.48-23.24-4.78-28.63,5.79-4.57-3.85-9.13-7.7-14.69-10-7.79-3.27-15.32-3.92-21.82,2.75-1.16,1.2-1.82,1-2.91.05-7.49-6.29-15.71-5.27-23.95-2-9.13,3.63-15.92,10.24-21.82,17.88-.82,1.06-1.14,2.79-3.09,2.89-.54-1.43-1-2.83-1.59-4.18-4.26-9.76-10.09-17.8-21.39-20.24-5.22-1.12-10.33-2.73-15.45-4.28-1.14-.34-2.84-.11-3.18-1.93-.82-4.41-2.69-8.42-1-13.39,5.2-15.56-5.26-37.53-21-41.85-11.4-3.12-20.84-8-28.91-16.48-2.56-2.69-2.73-3.4.18-5.67C778.83,349,798.67,329.67,814,306.1c9.41-14.45,16.47-29.87,19.52-47,.7-3.91-.58-6.33-4.16-7.72a16,16,0,0,0-9.21-.74c-3.3.69-5.34,2.13-5.84,6.1-1.69,13.41-6.47,25.86-12.89,37.71-13.9,25.69-33.25,47-54,67.14-2,1.91-3.24,1.07-5,.1q-65.35-36.43-129.34,2.37c-1.93,1.17-3.05,1.44-4.86-.31-14-13.42-27.47-27.24-39.12-42.75-14.87-19.8-27.27-40.78-30.37-66-.26-2.1-1.71-3.05-3.43-3.69a15.38,15.38,0,0,0-11.75.26c-3.07,1.33-4.67,3.53-3.78,7.1.92,3.74,1.47,7.59,2.56,11.28,7.9,26.82,23.93,48.57,43,68.39a299.53,299.53,0,0,0,37.73,32.9,28.7,28.7,0,0,0-3.18,2.83,36.66,36.66,0,0,1-23.64,13.26c-4.67.72-9.78,2.4-13,6.42-9.18,11.61-15.46,24-9.81,39.47,1.42,3.87-1.94,12-5.12,13.08-4.91,1.71-9.79,3.66-14.85,4.7-6.22,1.27-10.38,4.81-13.64,9.88-3,4.66-4.61,9.92-6.56,15.73-1.31-1.82-2.14-3-3-4.21-6-7.91-12.79-14.95-22.21-18.77-8.38-3.4-16.73-4.53-24.36,1.87-1.52,1.27-2.15.55-3.2-.49-4.54-4.46-10-5.44-16.08-4.09-7.07,1.56-12.76,5.51-18,10.2-1.7,1.51-2.55,1.84-3.79-.58-2.87-5.6-7.76-8.08-14-7.67-9.93.66-17.68,5.78-24.17,12.8a13.27,13.27,0,0,0-3.08,11.68c.54,3.06.64,6.2,1.09,9.29C382.94,489.88,381.88,491,378.42,490.93Zm590.7,13.81c-2.84.1-5.6,0-8-1.85-.79-.07-1.54-.47-1.57-1.21,0-1.08,1-.85,1.66-.83,2.51.12,2.65-.9,1.69-2.9-1.5-3.17-1.4-6.57-1-10-2.31-.42-5.79,1.15-5.6-3.47a13.86,13.86,0,0,1,8.12.5c3.72,1.28,6.47,2.9,5.85,7.77a21.23,21.23,0,0,0,1.11,8.69C972.17,504.06,971.39,504.67,969.12,504.74ZM945,468.46c1.86-2.7,2.53-6.55,6.92-6.66a16,16,0,0,1,8.85,2.56,89.84,89.84,0,0,1,7.76,5.14c2.56,1.93,3.34,4.43,2.81,7.82s-1.73,2.09-3.27,1.12c-2.4-.79-4.32-1.35-5.89-4.25-1.67-3.08-6-4.63-9.7-5.69-2-.56-2.68,1.37-3.38,2.86-.62,1.34-1.27,2.67-2.65.57C945.57,471,943.68,470.43,945,468.46Zm-.92,15.28a9.42,9.42,0,0,1,3.52,11.4c-3.36,7.39-7.2,14.57-8.94,22.59-.36,1.66-1.43,1.67-2.69,1.32a9,9,0,0,1-5.38-3.34c5.92-1.05,7.72-5.41,8.61-10.48-.33-5.14-4.57-7.34-7.76-10.33-3.16-1.22-3.27-3-.91-5.17a35.33,35.33,0,0,1,5.4-4.57C938.41,483.71,941.17,481.7,944.11,483.74Zm-34.54-23.55c3.29-1.84,6.66-.58,9.77.85a46.19,46.19,0,0,1,16.77,13.48c2.83,3.55-2.45,2.37-3.39,3.93a2.36,2.36,0,0,1-.29.33c-5.08,3.83-5,3.73-9.28-.95-3.64-3.94-7.64-7.59-13.28-8.33-2-.26-2.24-1.64-2.82-3C904.24,463,907.26,461.47,909.57,460.19Zm-1.49,24.68a113.52,113.52,0,0,0,22,20.64c-6,2.91-11.9,4.83-19,4.47,3.46-1.91,7.09-2.25,9.15-5.25-8.91.82-17-1.17-23.76-7.25-.55,2.14-1.09,4.29-1.64,6.43-.14.55-.18,1.31-.93,1.31s-1.17-.58-1.43-1.34c-2.56-7.45,5.36-19.7,13.16-20.42C906.94,483.33,907.43,484.06,908.08,484.87ZM879.84,461c7.22-2.35,11.47-1,15.95,5,2.43,3.3,4.29,7,6.55,10.77l-3.92,1.47c-3.24,2.08-6.5,4.13-8.7,7.41-.93,1.37-1.9,1.53-3.35.7-4.35-2.51-8.19-5.5-9.27-10.7-.51-2.47-1.11-2.55-3.11-1.27-3.88,2.45-7.91,4.67-10.72,8.43-1.2,1.6-2.75,1.48-4.39,1.21a20.66,20.66,0,0,1-2.22.13,7.25,7.25,0,0,1-1.64-.55C861.17,473.55,868.24,464.8,879.84,461ZM642,470.37c-.72,1.41-2.75,1.61-4.39,1.59-13.47-.13-25.93-2.72-34.83-14.17a80.18,80.18,0,0,1-12.88-24.09c19.31,8.46,37.21,16.91,50.12,33C640.86,467.8,642.68,468.93,642,470.37Zm105.84-5.68A41.14,41.14,0,0,1,719,471.81c-4-.46-4.3-1.43-1.73-4.73,9-11.53,21-19.13,33.79-25.7,5.14-2.65,10.48-4.89,16.89-7.86C763.25,446.27,757.89,457.47,747.79,464.69ZM814,455.74a28,28,0,0,0,7.23,2.07c10.75,1.55,15.76,8.92,19,18.24,3.74,10.87,3.76,10.87-7.57,10.85-1.78,0-3.55-.09-5.33-.14-.44.05-.88.12-1.33.13-7.62.16-7.76.18-9-7.28-.56-3.43-2.2-5.36-5.28-7-9.19-4.83-18.72-8-30.29-7,3.19-3.28,6.23-4.68,9.12-6.28,1.31-.67,2.63-1.32,3.94-2C800.7,454.13,807.08,452.66,814,455.74ZM579.71,395.63c19.53-6,37.08-.33,54.1,8.8,9.73,5.21,18,12.46,26.69,19.12,1.29-2.55-1-3.7-2.25-4.92-10-9.93-20.13-19.8-30.4-29.49-2.9-2.73-3.39-4.18.17-6.95,11.12-8.64,23.08-15.61,36.44-20.12-6.08-.21-11.67,1.93-17.25,3.86A91.71,91.71,0,0,0,615.8,384c-3.54,3.15-6.7,4.3-11,2.76-1.22-.43-2.53-.63-3.88-1,44.89-45.55,118.78-40.95,157.38.19-5.11,2.06-9.12,2-13.86-2.14a94.51,94.51,0,0,0-43.86-21.52,13.5,13.5,0,0,0-5.29-.29c14.65,4.18,27.3,12,39.32,21.13,2.9,2.2,2.61,3.4.13,5.67q-16.1,14.72-31.86,29.8c-1.72,1.65-3.9,3.23-4.15,6,2.95-.89,4.79-3.32,7-5.16,13.89-11.36,28.73-20.79,46.57-24.91,11.78-2.72,22.91-1.15,33.89,3.36,3.92,1.61,5.68,5.1,7.65,8.34,3.13,5.12,5.24,10.63,4.93,16.8,0,.74.21,1.81-.18,2.17-4.62,4.15-1.41,8.72-.69,13.05,1.5,9.05,1.61,9-6.56,13.18l-13.25,10.24c4.72-11.31,7.43-21.78,7.17-32.83-.33-1.15.3-1.84,1-2.7a14.12,14.12,0,0,0-.57-18.05c-.73,7.6-1.25,7.85-9.21,8.49-28.42,2.3-49.83,16.39-65.69,39.55-4.19,6.12-4.53,6.19-8.64-.11a16.61,16.61,0,0,0,3.63,12.41c1.75,2.1.71,3.86-.3,5.16-1.51,1.92-2.85-.26-4-1.06-9-6.54-9.78-11.11-3.72-20.32,1.13-1.72,2.24-3.45,3.35-5.18l-1-.66c-3.85,2-6,5.65-8.69,8.81-.53,1.2-1.14,2.38-1.59,3.62-.66,1.75-.74,3.92-3.33,4.1s-4-1.62-5.22-3.49c-.71-1.09-1.25-2.3-1.93-3.57-.47,3.12-.82,6.72-4.48,6.79a7.49,7.49,0,0,1-7.8-6c-2.87-4-5.61-8.11-10-10.66-.22.3-.44.59-.65.89,1.8,2.87,3.55,5.77,5.43,8.59,2.95,4.45,2.55,8.52-1,12.48a23.79,23.79,0,0,1-5.51,5.1c-.91.53-2.09,2.44-3.19.61-.78-1.29-2.31-2.81-.52-4.71a16.1,16.1,0,0,0,4.27-12.64c-.5.55-1,1.08-1.5,1.65-2.23,2.69-3.76,2.86-5.88-.53-10.85-17.25-25.64-29.85-44.93-36.89-7-2.56-14.29-4.38-21.72-4.34-6,0-9.06-2.45-10.21-8-5.07,7.52-4.54,14.33,1.54,19.61,1.57,3.88.68,8,1.3,12,.87,5.54,2.81,10.77,4,16.21.09.36.37.94.26,1-.46.38-.68-.06-.86-.45l-10.73-8.31c-7.21-3.63-7.22-3.63-5.26-11.5.32-1.29.42-2.8,1.17-3.78,2-2.6,1.42-4.46-1.12-6.09-1.44-.92-1.56-2.34-1.63-3.89C559.8,411.11,568.33,399.15,579.71,395.63Zm-57,81.46a63.15,63.15,0,0,1,3.28-8.72c2.05-4.5,5.06-7.6,10.36-8.78a109.9,109.9,0,0,0,18.16-6,10,10,0,0,1,9.61.67c4.15,2.38,8.88,3.86,12.09,7.72l5.82,3.24c-7,.58-13-.19-18.84,1.19-6.57,1.56-12.47,4.59-18.34,7.73-3.22,1.73-2.62,5.27-2.76,8-.2,4.11-1.85,5.31-5.63,4.79a50.42,50.42,0,0,0-5.77-.19C519.86,487.33,519.81,487.31,522.74,477.09Zm-117.25,8.5c-.39.88-.33,2.17-1.72,2.27s-2.65.1-4,.15c1.41,3.23.48,6.34-.72,9.33-.92,2.29-1.45,3.93,2.05,3.52.59-.07,1.71-.16,1.35.94-.17.5-1.14.74-1.75,1.1a8.84,8.84,0,0,1-4.49,1.72c-5.41.89-6.14,0-5.2-5.23a50.63,50.63,0,0,0,.51-7.5c.11-4.93,8.85-9.94,13.33-7.63C405.52,484.6,405.75,485,405.49,485.59Zm61-20.26c3.85-4.8,8.55-6.44,14.6-4.58,12.09,3.71,19.32,12.6,25.59,22.78-1.39,1-2.56.66-3.7.56-1.62.19-3.29.53-4.42-1.15-3.11-4.62-8.21-6.6-13-10a18.32,18.32,0,0,1-8.89,12.73c-2.19,1.29-3.78,1.85-5.43-.87-1.81-3-5-4.57-7.87-6.36l-3.8-1.61C462,472.87,463.73,468.8,466.52,465.33Zm2.16,39.58c-.11.22-.49.31-1,.6l-2.31-7.82c-7.55,5.75-15.78,8.73-25.36,6.22,2.64,3.06,6.5,4,10,5.69-5.11.87-11.93-.71-18-4.28a118.18,118.18,0,0,0,22.13-21,2.07,2.07,0,0,1,1.91-.84C464.54,483.86,472.49,497.42,468.68,504.91Zm-24.8-44.47c5.12-2.07,8.74-1.13,11.23,2.1,1.2,1.57.88,2.62-.34,3.78-.31,1.48-.73,2.89-2.55,3.13-6.48.87-10.9,5.08-14.63,9.82-2.38,3-4,3.75-6.63.64a10.1,10.1,0,0,0-1.72-1.36l-5.12-2.45C430,469.58,435.9,463.68,443.88,460.44Zm-23.12,22.69c5.12,1,8.8,4.14,11.73,8.18,1.88,2.6-1.11,2.61-2.23,3.59-3.11,3-7.22,5.17-7.67,10.14.78,5.12,2.51,9.51,8.43,10.61-.72,1.92-2.4,2.22-3.75,2.92-2.52,1.28-3.84.83-4.54-2.26-1.57-6.95-4.83-13.3-7.87-19.71-2.37-5-1.46-9.14,2.63-12.78A3.38,3.38,0,0,1,420.76,483.13Zm-29.42-11.49c5-5.34,10.76-9.29,18.27-9.81,4.39-.31,5.18,3.67,7,6.4,1.24,1.83.17,2.64-1.12,3.52-1,2.19-2.05,2-2.74-.13-1.28-3.91-3.67-3.78-6.47-1.85s-7.07,2.34-8,6.88c-.17.8-2.86,1.08-4.38,1.6-2.24,1.94-3.45,1.85-3.5-1.53C390.37,474.91,390,473,391.34,471.64Z" transform="translate(-334.59 -145.22)"/></g></svg>